<svg xmlns="http://www.w3.org/2000/svg" viewBox="0 0 512 512">
  <rect width="512" height="512" rx="48" ry="48" fill="#0B0F0D"/>
  <g transform="translate(96,60) scale(3)">
    <defs><linearGradient id="lg2" x1="0" y1="0" x2="1" y2="1">
      <stop offset="0" stop-color="#2BD576"/><stop offset="1" stop-color="#139A53"/></linearGradient></defs>
    <path fill="url(#lg2)" d="M32 4c6 8 17 10 28 10C52 26 41 28 32 28S12 26 4 14C15 14 26 12 32 4zM32 28c2 10 2 20-2 32-4-8-6-16-6-24 0-5 2-8 8-8zm0 0c-2 10-2 20 2 32 4-8 6-16 6-24 0-5-2-8-8-8z" />
  </g>
  <text x="256" y="430" text-anchor="middle" fill="#E7F3EC" font-family="Inter, Segoe UI, Roboto, Helvetica, Arial" font-weight="800" font-size="60">DMJ</text>
</svg>