<svg xmlns="http://www.w3.org/2000/svg" viewBox="0 0 900 220">
  <rect width="900" height="220" fill="none"/>
  <g transform="translate(20,20)">
    <g transform="translate(0,0) scale(2.2)">
      <defs><linearGradient id="lg" x1="0" y1="0" x2="1" y2="1">
        <stop offset="0" stop-color="#2BD576"/>
        <stop offset="1" stop-color="#139A53"/></linearGradient></defs>
      <path fill="url(#lg)" d="M32 4c6 8 17 10 28 10C52 26 41 28 32 28S12 26 4 14C15 14 26 12 32 4zM32 28c2 10 2 20-2 32-4-8-6-16-6-24 0-5 2-8 8-8zm0 0c-2 10-2 20 2 32 4-8 6-16 6-24 0-5-2-8-8-8z"/>
    </g>
    <g transform="translate(180,40)">
      <text x="0" y="70" fill="#E7F3EC" font-family="Inter, Segoe UI, Roboto, Helvetica, Arial" font-weight="800" font-size="72" letter-spacing="-0.02em">Dear Mary J</text>
      <text x="2" y="115" fill="#A6B7AF" font-family="Inter, Segoe UI, Roboto, Helvetica, Arial" font-weight="500" font-size="26" letter-spacing="0">dearmaryj.com</text>
    </g>
  </g>
</svg>